# Blender v2.93.1 OBJ File: ''
# www.blender.org
mtllib street_lamp.mtl
o obj_0.002
v 1.264706 -5.970592 0.984797
v 1.264706 -7.170592 0.984797
v 1.264706 -7.170592 -1.015203
v 1.264706 -5.970592 -1.015203
v -0.735294 -5.970592 -1.015203
v -0.735294 -7.170592 -1.015203
v -0.735294 -7.170592 0.984797
v -0.735294 -5.970592 0.984797
v -0.135294 -5.970592 -0.015203
v -0.115694 -5.970592 -0.138803
v 0.141106 -5.970592 0.365197
v 0.264706 -5.970592 0.384797
v 0.645106 -5.970592 -0.138803
v 0.664706 -5.970592 -0.015203
v 0.264706 -5.970592 -0.415203
v 0.499806 -5.970592 -0.338803
v 0.588306 -5.970592 -0.250303
v 0.388306 -5.970592 -0.395603
v 0.141106 -5.970592 -0.395603
v 0.029606 -5.970592 -0.338803
v -0.058894 -5.970592 -0.250303
v 0.388306 -5.970592 0.365197
v 0.499806 -5.970592 0.308397
v 0.645106 -5.970592 0.108397
v 0.588306 -5.970592 0.219897
v -0.115694 -5.970592 0.108397
v -0.058894 -5.970592 0.219897
v 0.029606 -5.970592 0.308397
v -1.735294 5.229409 -0.515203
v -1.735294 4.229409 -0.515203
v -1.735294 4.229409 0.627397
v -1.735294 5.229409 0.627397
v -1.635294 4.229409 -0.415203
v -1.635294 4.229409 0.484797
v -0.735294 4.229409 -0.415203
v 0.664706 4.229409 -0.515203
v -0.735294 4.229409 0.484797
v 0.664706 5.229409 0.627397
v 0.664706 5.229409 -0.515203
v 0.664706 4.229409 0.627397
v 0.264706 4.229409 -0.415203
v -0.135294 4.229409 -0.351773
v -0.135294 4.229409 -0.015203
v -0.135294 4.229409 0.384797
v 0.264706 4.229409 0.384797
v 0.141106 4.229409 0.365197
v 0.141106 4.229409 -0.395603
v -0.058894 4.229409 -0.250303
v 0.029606 4.229409 -0.338803
v 0.388306 4.229409 0.365197
v -0.115694 4.229409 -0.138803
v 0.029606 4.229409 0.308397
v 0.664706 4.229409 0.384797
v 0.664706 4.229409 -0.415203
v 0.664706 4.229409 -0.015203
v 0.588306 4.229409 -0.250303
v 0.499806 4.229409 -0.338803
v 0.388306 4.229409 -0.395603
v 0.499806 4.229409 0.308397
v 0.588306 4.229409 0.219897
v 0.645106 4.229409 0.108397
v 0.645106 4.229409 -0.138803
v -0.115694 4.229409 0.108397
v -0.058894 4.229409 0.219897
v -1.635294 3.929409 -0.415203
v -1.635294 3.929409 0.484797
v -0.735294 3.929409 0.484797
v -0.735294 3.929409 -0.415203
vn 0.5773 0.5773 0.5773
vn 0.5773 -0.5773 0.5773
vn 0.5773 -0.5773 -0.5773
vn 0.5773 0.5773 -0.5773
vn -0.5773 0.5773 -0.5773
vn -0.5773 -0.5773 -0.5773
vn -0.5773 -0.5773 0.5773
vn -0.5773 0.5773 0.5773
vn -0.6680 0.7441 0.0000
vn -0.6354 0.7440 -0.2065
vn -0.2065 0.7440 0.6354
vn 0.0000 0.7441 0.6680
vn 0.6354 0.7440 -0.2065
vn 0.6680 0.7441 0.0000
vn 0.0000 0.7441 -0.6680
vn 0.3927 0.7441 -0.5405
vn 0.5405 0.7441 -0.3927
vn 0.2065 0.7440 -0.6354
vn -0.2065 0.7440 -0.6354
vn -0.3927 0.7441 -0.5405
vn -0.5405 0.7441 -0.3927
vn 0.2065 0.7440 0.6354
vn 0.3927 0.7441 0.5405
vn 0.6354 0.7440 0.2065
vn 0.5405 0.7441 0.3927
vn -0.6354 0.7440 0.2065
vn -0.5405 0.7441 0.3927
vn -0.3927 0.7441 0.5405
vn -0.3015 -0.9045 -0.3015
vn -0.3015 -0.9045 0.3015
vn 0.3015 -0.9045 -0.3015
vn 0.3015 -0.9045 0.3015
vn 0.0000 -0.7442 -0.6680
vn 0.0000 -1.0000 0.0001
vn -0.6680 -0.7441 0.0000
vn 0.0000 -1.0000 0.0000
vn 0.0000 -0.7441 0.6680
vn -0.2065 -0.7440 0.6354
vn -0.5395 -0.8417 -0.0229
vn -0.5405 -0.7441 -0.3927
vn -0.3927 -0.7441 -0.5405
vn 0.2065 -0.7440 0.6354
vn -0.6354 -0.7440 -0.2065
vn -0.3927 -0.7441 0.5405
vn 0.7071 -0.7071 0.0000
vn 0.9987 -0.0503 0.0000
vn 0.5405 -0.7441 -0.3927
vn 0.3927 -0.7441 -0.5405
vn 0.2065 -0.7440 -0.6354
vn 0.3927 -0.7441 0.5405
vn 0.5405 -0.7441 0.3927
vn 0.6354 -0.7440 0.2065
vn 0.6354 -0.7440 -0.2065
vn -0.6354 -0.7440 0.2065
vn -0.5405 -0.7441 0.3927
usemtl color_10988977
s 1
f 1//1 2//2 3//3
f 1//1 3//3 4//4
f 5//5 6//6 7//7
f 5//5 7//7 8//8
f 5//5 8//8 9//9
f 9//9 10//10 5//5
f 11//11 8//8 12//12
f 4//4 13//13 14//14
f 4//4 14//14 1//1
f 4//4 5//5 15//15
f 16//16 17//17 4//4
f 13//13 4//4 17//17
f 16//16 4//4 18//18
f 15//15 18//18 4//4
f 15//15 5//5 19//19
f 19//19 5//5 20//20
f 21//21 20//20 5//5
f 12//12 1//1 22//22
f 22//22 1//1 23//23
f 14//14 24//24 1//1
f 23//23 1//1 25//25
f 25//25 1//1 24//24
f 21//21 5//5 10//10
f 9//9 8//8 26//26
f 26//26 8//8 27//27
f 1//1 12//12 8//8
f 27//27 8//8 28//28
f 28//28 8//8 11//11
f 2//2 7//7 6//6
f 2//2 6//6 3//3
f 7//7 2//2 1//1
f 8//8 7//7 1//1
f 4//4 3//3 6//6
f 5//5 4//4 6//6
usemtl color_12568524
f 29//5 30//6 31//7
f 29//5 31//7 32//8
f 33//29 34//30 30//6
f 31//7 30//6 34//30
f 35//31 33//29 30//6
f 35//31 30//6 36//3
f 31//7 34//30 37//32
f 38//1 39//4 32//8
f 40//2 31//7 37//32
f 36//3 41//33 35//31
f 42//34 43//35 35//31
f 37//32 35//31 43//35
f 43//35 44//36 37//32
f 40//2 37//32 44//36
f 45//37 46//38 11//11
f 12//12 45//37 11//11
f 15//15 47//39 41//33
f 21//21 48//40 49//41
f 45//37 12//12 50//42
f 21//21 51//43 48//40
f 11//11 46//38 52//44
f 15//15 41//33 18//18
f 40//2 32//8 31//7
f 36//3 30//6 29//5
f 38//1 40//2 53//45
f 47//39 19//19 49//41
f 44//36 45//37 40//2
f 40//2 45//37 53//45
f 32//8 40//2 38//1
f 36//3 39//4 54//45
f 49//41 20//20 21//21
f 53//45 55//46 38//1
f 39//4 38//1 55//46
f 39//4 55//46 54//45
f 29//5 32//8 39//4
f 42//34 35//31 41//33
f 54//45 41//33 36//3
f 39//4 36//3 29//5
f 56//47 57//48 54//45
f 57//48 58//49 54//45
f 41//33 54//45 58//49
f 22//22 50//42 12//12
f 42//34 41//33 47//39
f 47//39 49//41 42//34
f 49//41 48//40 42//34
f 22//22 23//23 50//42
f 45//37 50//42 53//45
f 50//42 59//50 53//45
f 59//50 60//51 53//45
f 23//23 60//51 59//50
f 60//51 61//52 53//45
f 55//46 53//45 61//52
f 54//45 55//46 62//53
f 56//47 54//45 62//53
f 60//51 25//25 24//24
f 48//40 51//43 42//34
f 43//35 42//34 51//43
f 43//35 63//54 44//36
f 63//54 64//55 44//36
f 64//55 52//44 44//36
f 52//44 46//38 44//36
f 45//37 44//36 46//38
f 63//54 26//26 27//27
f 59//50 50//42 23//23
f 56//47 17//17 16//16
f 55//46 24//24 14//14
f 24//24 61//52 60//51
f 55//46 61//52 24//24
f 13//13 62//53 55//46
f 13//13 56//47 62//53
f 9//9 43//35 51//43
f 9//9 26//26 43//35
f 27//27 28//28 52//44
f 52//44 28//28 11//11
f 63//54 27//27 64//55
f 27//27 52//44 64//55
f 47//39 15//15 19//19
f 20//20 49//41 19//19
f 25//25 60//51 23//23
f 57//48 56//47 16//16
f 16//16 18//18 58//49
f 16//16 58//49 57//48
f 55//46 14//14 13//13
f 18//18 41//33 58//49
f 51//43 21//21 10//10
f 10//10 9//9 51//43
f 63//54 43//35 26//26
f 56//47 13//13 17//17
usemtl color_16768282
f 33//29 65//6 66//7
f 33//29 66//7 34//30
f 67//2 66//7 65//6
f 67//2 65//6 68//3
f 33//29 35//31 68//3
f 33//29 68//3 65//6
f 37//32 34//30 66//7
f 37//32 66//7 67//2
f 37//32 67//2 68//3
f 37//32 68//3 35//31
